<?xml version="1.0" standalone="no"?>
<!DOCTYPE svg PUBLIC "-//W3C//DTD SVG 20010904//EN"
 "http://www.w3.org/TR/2001/REC-SVG-20010904/DTD/svg10.dtd">
<svg version="1.0" xmlns="http://www.w3.org/2000/svg"
 width="153.000000pt" height="153.000000pt" viewBox="0 0 153.000000 153.000000"
 preserveAspectRatio="xMidYMid meet">
<metadata>
Created by potrace 1.16, written by Peter Selinger 2001-2019
</metadata>
<g transform="translate(0.000000,153.000000) scale(0.100000,-0.100000)"
fill="#000000" stroke="none">
<path d="M831 1210 c-24 -11 -72 -39 -105 -62 -60 -42 -63 -42 -168 -48 -85
-4 -111 -9 -127 -24 -39 -35 -22 -60 56 -80 42 -11 48 -16 51 -40 2 -16 -1
-33 -6 -38 -5 -5 -69 -14 -141 -19 -146 -10 -171 -18 -171 -54 0 -30 34 -41
155 -50 120 -8 125 -10 125 -46 0 -23 -6 -32 -27 -39 -47 -17 -58 -26 -61 -53
-4 -29 1 -31 96 -46 72 -11 94 -25 90 -55 -3 -18 -15 -27 -78 -56 -9 -4 -15
-21 -15 -41 0 -43 14 -46 185 -48 l125 -1 71 -71 71 -71 112 129 c191 220 251
326 251 448 l0 65 -153 0 c-203 0 -236 -10 -237 -72 0 -42 35 -59 147 -69 54
-4 109 -9 123 -9 24 -1 24 -1 5 -12 -11 -6 -46 -35 -77 -65 -100 -94 -174
-113 -266 -67 -115 57 -167 180 -127 295 53 149 187 208 325 143 67 -31 136
-45 184 -37 l36 6 -18 29 c-28 49 -109 118 -170 145 -80 36 -199 42 -261 13z"/>
</g>
</svg>
